<svg width="107" height="15" viewBox="0 0 107 15" fill="none" xmlns="http://www.w3.org/2000/svg">
<path d="M5.18062 1.83449C5.50278 0.963874 6.73416 0.963875 7.05632 1.83449L8.11962 4.70802C8.22091 4.98174 8.43672 5.19755 8.71044 5.29884L11.584 6.36214C12.4546 6.68429 12.4546 7.91568 11.584 8.23784L8.71044 9.30114C8.43672 9.40243 8.22091 9.61824 8.11962 9.89196L7.05632 12.7655C6.73416 13.6361 5.50278 13.6361 5.18062 12.7655L4.11732 9.89196C4.01603 9.61824 3.80022 9.40243 3.5265 9.30114L0.652973 8.23784C-0.217645 7.91568 -0.217644 6.68429 0.652975 6.36214L3.5265 5.29884C3.80022 5.19755 4.01603 4.98174 4.11732 4.70802L5.18062 1.83449Z" fill="black"/>
<path d="M41.9585 10.1V7.97999H47.8785C48.5851 7.97999 49.1451 7.79332 49.5585 7.41999C49.9718 7.03332 50.1785 6.49999 50.1785 5.81999C50.1785 5.11332 49.9718 4.57332 49.5585 4.19999C49.1451 3.82665 48.5851 3.63999 47.8785 3.63999H42.2785V14.3H39.6185V1.35999H47.6385C48.3585 1.35999 49.0318 1.44665 49.6585 1.61999C50.2985 1.79332 50.8518 2.05999 51.3185 2.41999C51.7985 2.77999 52.1718 3.23999 52.4385 3.79999C52.7051 4.35999 52.8385 5.03332 52.8385 5.81999C52.8385 6.59332 52.7051 7.25332 52.4385 7.79999C52.1718 8.34665 51.7985 8.79332 51.3185 9.13999C50.8518 9.47332 50.2985 9.71999 49.6585 9.87999C49.0318 10.0267 48.3585 10.1 47.6385 10.1H41.9585ZM59.51 14.52C58.5234 14.52 57.6234 14.3067 56.81 13.88C56.01 13.44 55.37 12.8333 54.89 12.06C54.4234 11.2733 54.19 10.3667 54.19 9.33999C54.19 8.28665 54.43 7.37332 54.91 6.59999C55.39 5.82665 56.0367 5.22665 56.85 4.79999C57.6767 4.35999 58.61 4.13999 59.65 4.13999C60.7967 4.13999 61.7167 4.37332 62.41 4.83999C63.1167 5.29332 63.63 5.91332 63.95 6.69999C64.27 7.48665 64.43 8.36665 64.43 9.33999C64.43 9.92665 64.3367 10.5267 64.15 11.14C63.9634 11.74 63.6767 12.3 63.29 12.82C62.9034 13.3267 62.3967 13.74 61.77 14.06C61.1434 14.3667 60.39 14.52 59.51 14.52ZM60.35 12.52C61.1367 12.52 61.8167 12.3867 62.39 12.12C62.9634 11.8533 63.4034 11.48 63.71 11C64.0167 10.52 64.17 9.96665 64.17 9.33999C64.17 8.65999 64.01 8.08665 63.69 7.61999C63.3834 7.13999 62.9434 6.77999 62.37 6.53999C61.81 6.28665 61.1367 6.15999 60.35 6.15999C59.2434 6.15999 58.3834 6.45332 57.77 7.03999C57.1567 7.61332 56.85 8.37999 56.85 9.33999C56.85 9.97999 56.9967 10.54 57.29 11.02C57.5834 11.4867 57.99 11.8533 58.51 12.12C59.0434 12.3867 59.6567 12.52 60.35 12.52ZM64.17 4.35999H66.77V14.3H64.35C64.35 14.3 64.33 14.1733 64.29 13.92C64.2634 13.6533 64.2367 13.32 64.21 12.92C64.1834 12.52 64.17 12.1267 64.17 11.74V4.35999ZM68.4232 4.35999H76.1432V6.37999H68.4232V4.35999ZM70.9832 1.63999H73.5832V14.3H70.9832V1.63999ZM80.775 -1.28746e-05V2.27999H77.755V-1.28746e-05H80.775ZM77.955 4.35999H80.555V14.3H77.955V4.35999ZM83.1466 4.35999H85.7466V14.3H83.1466V4.35999ZM90.3666 4.13999C90.9799 4.13999 91.5466 4.21999 92.0666 4.37999C92.5866 4.53999 93.0399 4.78665 93.4266 5.11999C93.8133 5.45332 94.1133 5.87999 94.3266 6.39999C94.5399 6.90665 94.6466 7.51332 94.6466 8.21999V14.3H92.0466V8.67999C92.0466 7.83999 91.8399 7.22665 91.4266 6.83999C91.0266 6.43999 90.3666 6.23999 89.4466 6.23999C88.7533 6.23999 88.1266 6.37332 87.5666 6.63999C87.0066 6.90665 86.5533 7.24665 86.2066 7.65999C85.8599 8.05999 85.6599 8.47999 85.6066 8.91999L85.5866 7.89999C85.6533 7.43332 85.8066 6.97999 86.0466 6.53999C86.2866 6.09999 86.6066 5.69999 87.0066 5.33999C87.4199 4.96665 87.9066 4.67332 88.4666 4.45999C89.0266 4.24665 89.6599 4.13999 90.3666 4.13999ZM96.6138 11H99.0138C99.1604 11.4533 99.4604 11.8267 99.9138 12.12C100.38 12.4 100.987 12.54 101.734 12.54C102.24 12.54 102.634 12.4933 102.914 12.4C103.194 12.3067 103.387 12.1733 103.494 12C103.6 11.8133 103.654 11.6067 103.654 11.38C103.654 11.1 103.567 10.8867 103.394 10.74C103.22 10.58 102.954 10.4533 102.594 10.36C102.234 10.2667 101.774 10.18 101.214 10.1C100.654 10.0067 100.114 9.89332 99.5938 9.75999C99.0738 9.62665 98.6138 9.45332 98.2138 9.23999C97.8138 9.01332 97.4938 8.73332 97.2538 8.39999C97.0271 8.05332 96.9138 7.63332 96.9138 7.13999C96.9138 6.65999 97.0271 6.23332 97.2538 5.85999C97.4938 5.48665 97.8204 5.17332 98.2338 4.91999C98.6604 4.66665 99.1538 4.47332 99.7138 4.33999C100.287 4.20665 100.9 4.13999 101.554 4.13999C102.54 4.13999 103.36 4.28665 104.014 4.57999C104.667 4.85999 105.154 5.25999 105.474 5.77999C105.807 6.28665 105.974 6.87332 105.974 7.53999H103.674C103.567 7.04665 103.354 6.69332 103.034 6.47999C102.714 6.25332 102.22 6.13999 101.554 6.13999C100.9 6.13999 100.407 6.23999 100.074 6.43999C99.7404 6.63999 99.5738 6.91332 99.5738 7.25999C99.5738 7.53999 99.6738 7.75999 99.8738 7.91999C100.087 8.06665 100.394 8.18665 100.794 8.27999C101.207 8.37332 101.72 8.47332 102.334 8.57999C102.854 8.68665 103.347 8.80665 103.814 8.93999C104.294 9.07332 104.72 9.24665 105.094 9.45999C105.467 9.65999 105.76 9.93332 105.974 10.28C106.2 10.6133 106.314 11.04 106.314 11.56C106.314 12.2 106.127 12.74 105.754 13.18C105.394 13.62 104.874 13.96 104.194 14.2C103.514 14.4267 102.7 14.54 101.754 14.54C100.914 14.54 100.187 14.4533 99.5738 14.28C98.9738 14.0933 98.4738 13.86 98.0738 13.58C97.6738 13.2867 97.3604 12.98 97.1338 12.66C96.9204 12.3267 96.7738 12.0133 96.6938 11.72C96.6138 11.4267 96.5871 11.1867 96.6138 11Z" fill="black"/>
</svg>
